# xmcd
#
# Track frame offsets:
#	150
#	14130
#	27045
#	41592
#	54607
#	70020
#	81985
#	94495
#	106075
#	118697
#	131787
#	142865
#	157342
#	169237
#
# Disc length: 2422 seconds
#
# Revision: 0
# Processed by: cddbd v1.5.2PL0 Copyright (c) Steve Scherf et al.
# Submitted via: dBpowerAMP V4.0
#
DISCID=c509740e
DTITLE=Teodoro e Sampaio - Sucessos de Ouro
DYEAR=2002
DGENRE=Sertanejo
TTITLE0=A gostosona
TTITLE1=Se a casa cair
TTITLE2=Água no leite
TTITLE3=Peão japonês
TTITLE4=Cheirinho de Mulher
TTITLE5=De parede e meia
TTITLE6=Amando escondido
TTITLE7=Cantaram minha vizinha
TTITLE8=Tudo o que ela quer eu dou
TTITLE9=O machão chorou
TTITLE10=Garanhão da madrugada
TTITLE11=Nossa festa de rodeio
TTITLE12=Minha parte eu quero em pinga
TTITLE13=Tô doido prá encontrar com ela
EXTD=
EXTT0=
EXTT1=
EXTT2=
EXTT3=
EXTT4=
EXTT5=
EXTT6=
EXTT7=
EXTT8=
EXTT9=
EXTT10=
EXTT11=
EXTT12=
EXTT13=
PLAYORDER=
